<?xml version="1.0" encoding="utf-8"?>
<svg xmlns="http://www.w3.org/2000/svg" width="222" height="222" class="qr"><title>QR code: https://aiprdesign.github.io/wc/#arlite&amp;industrial</title><g transform="scale(6)"><path fill="#f3ead8" d="M0 0h37v37h-37z"/><path class="qrline" stroke="#14110e" d="M2 2.5h7m1 0h1m4 0h1m1 0h2m6 0h1m2 0h7m-33 1h1m5 0h1m3 0h1m2 0h2m1 0h1m1 0h2m1 0h1m2 0h1m1 0h1m5 0h1m-33 1h1m1 0h3m1 0h1m4 0h1m2 0h1m2 0h2m2 0h1m1 0h2m1 0h1m1 0h3m1 0h1m-33 1h1m1 0h3m1 0h1m1 0h1m2 0h1m4 0h2m1 0h1m3 0h2m1 0h1m1 0h3m1 0h1m-33 1h1m1 0h3m1 0h1m1 0h1m2 0h1m1 0h1m2 0h1m2 0h1m2 0h2m2 0h1m1 0h3m1 0h1m-33 1h1m5 0h1m1 0h1m1 0h2m3 0h1m4 0h1m1 0h1m3 0h1m5 0h1m-33 1h7m1 0h1m1 0h1m1 0h1m1 0h1m1 0h1m1 0h1m1 0h1m1 0h1m1 0h1m1 0h7m-25 1h3m1 0h1m1 0h1m2 0h1m1 0h3m1 0h2m-25 1h1m3 0h1m1 0h4m1 0h1m3 0h1m1 0h1m2 0h3m1 0h6m2 0h1m-32 1h3m4 0h2m1 0h2m1 0h2m1 0h2m3 0h2m1 0h1m3 0h3m-31 1h1m3 0h3m2 0h1m1 0h4m2 0h1m1 0h2m1 0h1m1 0h1m3 0h1m1 0h1m-32 1h1m2 0h2m2 0h3m1 0h3m5 0h4m2 0h1m5 0h2m-32 1h1m1 0h1m2 0h1m5 0h2m1 0h2m2 0h4m2 0h2m1 0h2m1 0h2m-32 1h3m1 0h1m2 0h2m1 0h2m1 0h1m2 0h4m1 0h2m1 0h1m1 0h1m2 0h1m-30 1h2m3 0h1m2 0h1m2 0h1m2 0h1m1 0h1m4 0h2m1 0h4m2 0h1m-29 1h2m2 0h4m1 0h1m1 0h4m3 0h1m1 0h4m1 0h1m-29 1h1m1 0h1m3 0h3m4 0h1m3 0h1m1 0h4m3 0h1m1 0h2m1 0h1m-32 1h2m1 0h3m1 0h1m1 0h1m5 0h2m6 0h1m1 0h1m3 0h3m-31 1h2m1 0h1m1 0h2m1 0h2m2 0h1m1 0h1m1 0h1m4 0h2m1 0h1m1 0h1m1 0h1m-29 1h2m1 0h2m2 0h2m1 0h1m3 0h9m2 0h2m3 0h2m-33 1h5m1 0h2m1 0h4m2 0h1m2 0h1m1 0h3m1 0h1m1 0h4m-30 1h1m1 0h2m1 0h1m2 0h2m1 0h1m2 0h1m1 0h1m2 0h3m1 0h1m1 0h1m1 0h1m2 0h2m-29 1h2m1 0h3m2 0h1m4 0h3m2 0h3m4 0h4m-29 1h1m1 0h1m2 0h1m4 0h2m2 0h2m1 0h2m2 0h2m1 0h1m4 0h1m-33 1h7m2 0h2m1 0h1m2 0h1m1 0h1m2 0h9m2 0h2m-25 1h2m1 0h2m2 0h4m1 0h2m1 0h2m3 0h1m1 0h2m-32 1h7m1 0h1m2 0h2m2 0h2m1 0h1m2 0h2m1 0h1m1 0h1m1 0h2m-30 1h1m5 0h1m2 0h1m1 0h2m6 0h3m2 0h1m3 0h1m2 0h2m-33 1h1m1 0h3m1 0h1m1 0h1m1 0h1m2 0h1m1 0h2m3 0h3m1 0h6m1 0h2m-33 1h1m1 0h3m1 0h1m3 0h2m1 0h2m3 0h1m4 0h2m1 0h4m-30 1h1m1 0h3m1 0h1m3 0h2m1 0h1m1 0h1m4 0h1m2 0h2m1 0h4m-30 1h1m5 0h1m2 0h4m1 0h4m3 0h1m1 0h2m1 0h1m-27 1h7m1 0h1m1 0h1m2 0h2m2 0h8m1 0h1m5 0h1"/></g></svg>
